<?xml version="1.0" encoding="utf-8"?>
<!DOCTYPE svg PUBLIC "-//W3C//DTD SVG 1.1//EN" "http://www.w3.org/Graphics/SVG/1.1/DTD/svg11.dtd">
<svg version="1.1" id="Layer_1" xmlns="http://www.w3.org/2000/svg" xmlns:xlink="http://www.w3.org/1999/xlink" x="0px" y="0px" width="100vw" height="100vh" viewBox="0 0 1000 500" enable-background="new 0 0 1000 500" xml:space="preserve" style="margin: 10px;overflow: hidden;">
<line x1="799.034" y1="101.504" x2="883.441" y2="141.886" stroke="green" stroke-width="2"/>
<circle    cx="799.034" cy="101.504" r="2" />
<circle    cx="883.441" cy="141.886" r="2" />
<line x1="95.3963" y1="381.425" x2="792.568" y2="53.3618" stroke="green" stroke-width="2"/>
<circle    cx="95.3963" cy="381.425" r="2" />
<circle    cx="792.568" cy="53.3618" r="2" />
<line x1="67.3978" y1="108.728" x2="955.511" y2="7.83942" stroke="green" stroke-width="2"/>
<circle    cx="67.3978" cy="108.728" r="2" />
<circle    cx="955.511" cy="7.83942" r="2" />
<line x1="603.383" y1="91.8586" x2="887.027" y2="332.02" stroke="green" stroke-width="2"/>
<circle    cx="603.383" cy="91.8586" r="2" />
<circle    cx="887.027" cy="332.02" r="2" />
<line x1="614.369" y1="264.817" x2="922.824" y2="58.8497" stroke="green" stroke-width="2"/>
<circle    cx="614.369" cy="264.817" r="2" />
<circle    cx="922.824" cy="58.8497" r="2" />
<line x1="526.497" y1="27.9631" x2="588.281" y2="152.185" stroke="green" stroke-width="2"/>
<circle    cx="526.497" cy="27.9631" r="2" />
<circle    cx="588.281" cy="152.185" r="2" />
<line x1="499.557" y1="428.344" x2="978.637" y2="35.6701" stroke="green" stroke-width="2"/>
<circle    cx="499.557" cy="428.344" r="2" />
<circle    cx="978.637" cy="35.6701" r="2" />
<line x1="29.5303" y1="196.739" x2="812.924" y2="405.828" stroke="green" stroke-width="2"/>
<circle    cx="29.5303" cy="196.739" r="2" />
<circle    cx="812.924" cy="405.828" r="2" />
<line x1="138.249" y1="344.967" x2="608.912" y2="350.873" stroke="green" stroke-width="2"/>
<circle    cx="138.249" cy="344.967" r="2" />
<circle    cx="608.912" cy="350.873" r="2" />
<line x1="515.108" y1="455.91" x2="813.255" y2="285.309" stroke="green" stroke-width="2"/>
<circle    cx="515.108" cy="455.91" r="2" />
<circle    cx="813.255" cy="285.309" r="2" />
<line x1="172.802" y1="386.334" x2="598.512" y2="380.172" stroke="green" stroke-width="2"/>
<circle    cx="172.802" cy="386.334" r="2" />
<circle    cx="598.512" cy="380.172" r="2" />
<line x1="474.06" y1="299.109" x2="976.311" y2="247.611" stroke="green" stroke-width="2"/>
<circle    cx="474.06" cy="299.109" r="2" />
<circle    cx="976.311" cy="247.611" r="2" />
<line x1="66.2069" y1="204.188" x2="730.831" y2="290.304" stroke="green" stroke-width="2"/>
<circle    cx="66.2069" cy="204.188" r="2" />
<circle    cx="730.831" cy="290.304" r="2" />
<line x1="473.975" y1="166.096" x2="903.415" y2="231.483" stroke="green" stroke-width="2"/>
<circle    cx="473.975" cy="166.096" r="2" />
<circle    cx="903.415" cy="231.483" r="2" />
<line x1="367.147" y1="216.23" x2="411.938" y2="207.17" stroke="green" stroke-width="2"/>
<circle    cx="367.147" cy="216.23" r="2" />
<circle    cx="411.938" cy="207.17" r="2" />
<line x1="290.033" y1="222.152" x2="824.648" y2="97.9942" stroke="green" stroke-width="2"/>
<circle    cx="290.033" cy="222.152" r="2" />
<circle    cx="824.648" cy="97.9942" r="2" />
<line x1="177.868" y1="221.165" x2="916.437" y2="209.771" stroke="green" stroke-width="2"/>
<circle    cx="177.868" cy="221.165" r="2" />
<circle    cx="916.437" cy="209.771" r="2" />
<line x1="54.0514" y1="270.319" x2="379.099" y2="5.44801" stroke="green" stroke-width="2"/>
<circle    cx="54.0514" cy="270.319" r="2" />
<circle    cx="379.099" cy="5.44801" r="2" />
<line x1="348.086" y1="389.975" x2="799.889" y2="319.623" stroke="green" stroke-width="2"/>
<circle    cx="348.086" cy="389.975" r="2" />
<circle    cx="799.889" cy="319.623" r="2" />
<line x1="178.102" y1="402.684" x2="426.88" y2="119.661" stroke="green" stroke-width="2"/>
<circle    cx="178.102" cy="402.684" r="2" />
<circle    cx="426.88" cy="119.661" r="2" />
<line x1="259.03" y1="87.0423" x2="837.013" y2="359.023" stroke="green" stroke-width="2"/>
<circle    cx="259.03" cy="87.0423" r="2" />
<circle    cx="837.013" cy="359.023" r="2" />
<line x1="225.618" y1="454.904" x2="516.823" y2="372.455" stroke="green" stroke-width="2"/>
<circle    cx="225.618" cy="454.904" r="2" />
<circle    cx="516.823" cy="372.455" r="2" />
<line x1="203.401" y1="290.334" x2="390.23" y2="23.534" stroke="green" stroke-width="2"/>
<circle    cx="203.401" cy="290.334" r="2" />
<circle    cx="390.23" cy="23.534" r="2" />
<line x1="501.608" y1="357.195" x2="792.837" y2="333.19" stroke="green" stroke-width="2"/>
<circle    cx="501.608" cy="357.195" r="2" />
<circle    cx="792.837" cy="333.19" r="2" />
<line x1="128.546" y1="332.805" x2="200.819" y2="248.642" stroke="green" stroke-width="2"/>
<circle    cx="128.546" cy="332.805" r="2" />
<circle    cx="200.819" cy="248.642" r="2" />
<line x1="79.546" y1="250.035" x2="690.599" y2="124.834" stroke="green" stroke-width="2"/>
<circle    cx="79.546" cy="250.035" r="2" />
<circle    cx="690.599" cy="124.834" r="2" />
<line x1="326.688" y1="51.6908" x2="907.433" y2="209.453" stroke="green" stroke-width="2"/>
<circle    cx="326.688" cy="51.6908" r="2" />
<circle    cx="907.433" cy="209.453" r="2" />
<line x1="269.779" y1="369.094" x2="349.844" y2="259.008" stroke="green" stroke-width="2"/>
<circle    cx="269.779" cy="369.094" r="2" />
<circle    cx="349.844" cy="259.008" r="2" />
<line x1="281.815" y1="229.275" x2="931.279" y2="101.318" stroke="green" stroke-width="2"/>
<circle    cx="281.815" cy="229.275" r="2" />
<circle    cx="931.279" cy="101.318" r="2" />
<line x1="416.864" y1="93.3974" x2="967.285" y2="248.538" stroke="green" stroke-width="2"/>
<circle    cx="416.864" cy="93.3974" r="2" />
<circle    cx="967.285" cy="248.538" r="2" />
<line x1="120.197" y1="395.312" x2="238.735" y2="447.2" stroke="green" stroke-width="2"/>
<circle    cx="120.197" cy="395.312" r="2" />
<circle    cx="238.735" cy="447.2" r="2" />
<line x1="507.358" y1="362.617" x2="662.308" y2="311.463" stroke="green" stroke-width="2"/>
<circle    cx="507.358" cy="362.617" r="2" />
<circle    cx="662.308" cy="311.463" r="2" />
<line x1="163.549" y1="73.674" x2="439.819" y2="422.756" stroke="green" stroke-width="2"/>
<circle    cx="163.549" cy="73.674" r="2" />
<circle    cx="439.819" cy="422.756" r="2" />
<line x1="137.997" y1="119.067" x2="660.906" y2="32.0475" stroke="green" stroke-width="2"/>
<circle    cx="137.997" cy="119.067" r="2" />
<circle    cx="660.906" cy="32.0475" r="2" />
<line x1="170.966" y1="460.656" x2="670.727" y2="3.71939" stroke="green" stroke-width="2"/>
<circle    cx="170.966" cy="460.656" r="2" />
<circle    cx="670.727" cy="3.71939" r="2" />
<line x1="489.315" y1="348.951" x2="761.162" y2="255.09" stroke="green" stroke-width="2"/>
<circle    cx="489.315" cy="348.951" r="2" />
<circle    cx="761.162" cy="255.09" r="2" />
<line x1="200.543" y1="350.181" x2="727.667" y2="377.696" stroke="green" stroke-width="2"/>
<circle    cx="200.543" cy="350.181" r="2" />
<circle    cx="727.667" cy="377.696" r="2" />
<line x1="298.562" y1="302.404" x2="905.639" y2="205.106" stroke="green" stroke-width="2"/>
<circle    cx="298.562" cy="302.404" r="2" />
<circle    cx="905.639" cy="205.106" r="2" />
<line x1="351.793" y1="466.218" x2="444.502" y2="80.5096" stroke="green" stroke-width="2"/>
<circle    cx="351.793" cy="466.218" r="2" />
<circle    cx="444.502" cy="80.5096" r="2" />
<line x1="607.765" y1="178.548" x2="904.717" y2="16.7023" stroke="green" stroke-width="2"/>
<circle    cx="607.765" cy="178.548" r="2" />
<circle    cx="904.717" cy="16.7023" r="2" />
<line x1="514.953" y1="27.0484" x2="897.227" y2="377.787" stroke="green" stroke-width="2"/>
<circle    cx="514.953" cy="27.0484" r="2" />
<circle    cx="897.227" cy="377.787" r="2" />
<line x1="34.4093" y1="95.931" x2="120.654" y2="345.373" stroke="green" stroke-width="2"/>
<circle    cx="34.4093" cy="95.931" r="2" />
<circle    cx="120.654" cy="345.373" r="2" />
<line x1="203.453" y1="142.834" x2="665.642" y2="472.464" stroke="green" stroke-width="2"/>
<circle    cx="203.453" cy="142.834" r="2" />
<circle    cx="665.642" cy="472.464" r="2" />
<line x1="697.056" y1="274.333" x2="812.429" y2="85.6933" stroke="green" stroke-width="2"/>
<circle    cx="697.056" cy="274.333" r="2" />
<circle    cx="812.429" cy="85.6933" r="2" />
<line x1="295.048" y1="129.624" x2="946.087" y2="439.64" stroke="green" stroke-width="2"/>
<circle    cx="295.048" cy="129.624" r="2" />
<circle    cx="946.087" cy="439.64" r="2" />
<line x1="535.007" y1="108.092" x2="683.407" y2="479.76" stroke="green" stroke-width="2"/>
<circle    cx="535.007" cy="108.092" r="2" />
<circle    cx="683.407" cy="479.76" r="2" />
<line x1="385.061" y1="27.037" x2="951.37" y2="151.728" stroke="green" stroke-width="2"/>
<circle    cx="385.061" cy="27.037" r="2" />
<circle    cx="951.37" cy="151.728" r="2" />
<line x1="89.301" y1="283.658" x2="674.313" y2="3.1974" stroke="green" stroke-width="2"/>
<circle    cx="89.301" cy="283.658" r="2" />
<circle    cx="674.313" cy="3.1974" r="2" />
<line x1="61.7519" y1="198.298" x2="370.449" y2="102.498" stroke="green" stroke-width="2"/>
<circle    cx="61.7519" cy="198.298" r="2" />
<circle    cx="370.449" cy="102.498" r="2" />
<line x1="129.995" y1="298.079" x2="405.126" y2="89.3417" stroke="green" stroke-width="2"/>
<circle    cx="129.995" cy="298.079" r="2" />
<circle    cx="405.126" cy="89.3417" r="2" />
<line x1="474.026" y1="389.7" x2="593.193" y2="150.1" stroke="green" stroke-width="2"/>
<circle    cx="474.026" cy="389.7" r="2" />
<circle    cx="593.193" cy="150.1" r="2" />
<line x1="866.551" y1="458.783" x2="970.595" y2="151.959" stroke="green" stroke-width="2"/>
<circle    cx="866.551" cy="458.783" r="2" />
<circle    cx="970.595" cy="151.959" r="2" />
<line x1="221.33" y1="373.643" x2="227.848" y2="88.9466" stroke="green" stroke-width="2"/>
<circle    cx="221.33" cy="373.643" r="2" />
<circle    cx="227.848" cy="88.9466" r="2" />
<line x1="402.286" y1="443.137" x2="762.364" y2="385.639" stroke="green" stroke-width="2"/>
<circle    cx="402.286" cy="443.137" r="2" />
<circle    cx="762.364" cy="385.639" r="2" />
<line x1="117.125" y1="33.9129" x2="959.938" y2="359.38" stroke="green" stroke-width="2"/>
<circle    cx="117.125" cy="33.9129" r="2" />
<circle    cx="959.938" cy="359.38" r="2" />
<line x1="75.7668" y1="344.482" x2="332.869" y2="387.643" stroke="green" stroke-width="2"/>
<circle    cx="75.7668" cy="344.482" r="2" />
<circle    cx="332.869" cy="387.643" r="2" />
<line x1="20.7042" y1="67.3561" x2="128.177" y2="208.57" stroke="green" stroke-width="2"/>
<circle    cx="20.7042" cy="67.3561" r="2" />
<circle    cx="128.177" cy="208.57" r="2" />
<line x1="54.4087" y1="388.874" x2="319.925" y2="126.451" stroke="green" stroke-width="2"/>
<circle    cx="54.4087" cy="388.874" r="2" />
<circle    cx="319.925" cy="126.451" r="2" />
<line x1="73.8095" y1="317.193" x2="120.405" y2="31.545" stroke="green" stroke-width="2"/>
<circle    cx="73.8095" cy="317.193" r="2" />
<circle    cx="120.405" cy="31.545" r="2" />
<line x1="21.0859" y1="100.751" x2="957.851" y2="3.407" stroke="green" stroke-width="2"/>
<circle    cx="21.0859" cy="100.751" r="2" />
<circle    cx="957.851" cy="3.407" r="2" />
<line x1="188.555" y1="118.734" x2="968.554" y2="289.392" stroke="green" stroke-width="2"/>
<circle    cx="188.555" cy="118.734" r="2" />
<circle    cx="968.554" cy="289.392" r="2" />
<line x1="167.153" y1="367.796" x2="398.189" y2="72.0445" stroke="green" stroke-width="2"/>
<circle    cx="167.153" cy="367.796" r="2" />
<circle    cx="398.189" cy="72.0445" r="2" />
<line x1="216.33" y1="410.213" x2="504.651" y2="252.398" stroke="green" stroke-width="2"/>
<circle    cx="216.33" cy="410.213" r="2" />
<circle    cx="504.651" cy="252.398" r="2" />
<line x1="326.751" y1="143.068" x2="560.837" y2="170.182" stroke="green" stroke-width="2"/>
<circle    cx="326.751" cy="143.068" r="2" />
<circle    cx="560.837" cy="170.182" r="2" />
<line x1="429.615" y1="337.476" x2="773.285" y2="367.122" stroke="green" stroke-width="2"/>
<circle    cx="429.615" cy="337.476" r="2" />
<circle    cx="773.285" cy="367.122" r="2" />
<line x1="563.49" y1="20.0791" x2="947.185" y2="405.401" stroke="green" stroke-width="2"/>
<circle    cx="563.49" cy="20.0791" r="2" />
<circle    cx="947.185" cy="405.401" r="2" />
<line x1="105.399" y1="231.745" x2="495.296" y2="334.969" stroke="green" stroke-width="2"/>
<circle    cx="105.399" cy="231.745" r="2" />
<circle    cx="495.296" cy="334.969" r="2" />
<line x1="678.846" y1="430.73" x2="690.851" y2="61.9519" stroke="green" stroke-width="2"/>
<circle    cx="678.846" cy="430.73" r="2" />
<circle    cx="690.851" cy="61.9519" r="2" />
<line x1="368.901" y1="326.89" x2="490.248" y2="262.557" stroke="green" stroke-width="2"/>
<circle    cx="368.901" cy="326.89" r="2" />
<circle    cx="490.248" cy="262.557" r="2" />
<line x1="438.317" y1="435.153" x2="683.145" y2="461.862" stroke="green" stroke-width="2"/>
<circle    cx="438.317" cy="435.153" r="2" />
<circle    cx="683.145" cy="461.862" r="2" />
<line x1="423.75" y1="440.559" x2="800.486" y2="367.592" stroke="green" stroke-width="2"/>
<circle    cx="423.75" cy="440.559" r="2" />
<circle    cx="800.486" cy="367.592" r="2" />
<line x1="117.956" y1="314.051" x2="211.571" y2="186.771" stroke="green" stroke-width="2"/>
<circle    cx="117.956" cy="314.051" r="2" />
<circle    cx="211.571" cy="186.771" r="2" />
<line x1="90.3369" y1="436.526" x2="410.726" y2="28.1742" stroke="green" stroke-width="2"/>
<circle    cx="90.3369" cy="436.526" r="2" />
<circle    cx="410.726" cy="28.1742" r="2" />
<line x1="98.5171" y1="124.521" x2="738.935" y2="477.167" stroke="green" stroke-width="2"/>
<circle    cx="98.5171" cy="124.521" r="2" />
<circle    cx="738.935" cy="477.167" r="2" />
<line x1="678.112" y1="99.8774" x2="727.378" y2="190.512" stroke="green" stroke-width="2"/>
<circle    cx="678.112" cy="99.8774" r="2" />
<circle    cx="727.378" cy="190.512" r="2" />
<line x1="288.369" y1="342.515" x2="330.401" y2="208.763" stroke="green" stroke-width="2"/>
<circle    cx="288.369" cy="342.515" r="2" />
<circle    cx="330.401" cy="208.763" r="2" />
<line x1="113.624" y1="381.363" x2="255.356" y2="270.338" stroke="green" stroke-width="2"/>
<circle    cx="113.624" cy="381.363" r="2" />
<circle    cx="255.356" cy="270.338" r="2" />
<line x1="514.908" y1="64.0671" x2="687.054" y2="459.674" stroke="green" stroke-width="2"/>
<circle    cx="514.908" cy="64.0671" r="2" />
<circle    cx="687.054" cy="459.674" r="2" />
<line x1="857.976" y1="164.275" x2="881.305" y2="43.8597" stroke="green" stroke-width="2"/>
<circle    cx="857.976" cy="164.275" r="2" />
<circle    cx="881.305" cy="43.8597" r="2" />
<line x1="716.717" y1="9.43376" x2="730.733" y2="395.292" stroke="green" stroke-width="2"/>
<circle    cx="716.717" cy="9.43376" r="2" />
<circle    cx="730.733" cy="395.292" r="2" />
<line x1="864.577" y1="327.888" x2="910.502" y2="79.0823" stroke="green" stroke-width="2"/>
<circle    cx="864.577" cy="327.888" r="2" />
<circle    cx="910.502" cy="79.0823" r="2" />
<line x1="155.676" y1="471.719" x2="923.668" y2="408.386" stroke="green" stroke-width="2"/>
<circle    cx="155.676" cy="471.719" r="2" />
<circle    cx="923.668" cy="408.386" r="2" />
<line x1="187.01" y1="328.676" x2="242.75" y2="253.426" stroke="green" stroke-width="2"/>
<circle    cx="187.01" cy="328.676" r="2" />
<circle    cx="242.75" cy="253.426" r="2" />
<line x1="117.27" y1="260.14" x2="236.714" y2="113.091" stroke="green" stroke-width="2"/>
<circle    cx="117.27" cy="260.14" r="2" />
<circle    cx="236.714" cy="113.091" r="2" />
<line x1="329.736" y1="241.014" x2="782.835" y2="18.0194" stroke="green" stroke-width="2"/>
<circle    cx="329.736" cy="241.014" r="2" />
<circle    cx="782.835" cy="18.0194" r="2" />
<line x1="167.593" y1="160.921" x2="450.571" y2="155.629" stroke="green" stroke-width="2"/>
<circle    cx="167.593" cy="160.921" r="2" />
<circle    cx="450.571" cy="155.629" r="2" />
<line x1="418.093" y1="190.949" x2="653.136" y2="33.7458" stroke="green" stroke-width="2"/>
<circle    cx="418.093" cy="190.949" r="2" />
<circle    cx="653.136" cy="33.7458" r="2" />
<line x1="88.1584" y1="82.6906" x2="216.908" y2="9.13969" stroke="green" stroke-width="2"/>
<circle    cx="88.1584" cy="82.6906" r="2" />
<circle    cx="216.908" cy="9.13969" r="2" />
<line x1="330.286" y1="49.7069" x2="688.097" y2="238.022" stroke="green" stroke-width="2"/>
<circle    cx="330.286" cy="49.7069" r="2" />
<circle    cx="688.097" cy="238.022" r="2" />
<line x1="84.5786" y1="309.436" x2="339.75" y2="133.023" stroke="green" stroke-width="2"/>
<circle    cx="84.5786" cy="309.436" r="2" />
<circle    cx="339.75" cy="133.023" r="2" />
<line x1="322.812" y1="285.306" x2="789" y2="215.55" stroke="green" stroke-width="2"/>
<circle    cx="322.812" cy="285.306" r="2" />
<circle    cx="789" cy="215.55" r="2" />
<line x1="133.619" y1="22.3903" x2="670.976" y2="226.95" stroke="green" stroke-width="2"/>
<circle    cx="133.619" cy="22.3903" r="2" />
<circle    cx="670.976" cy="226.95" r="2" />
<line x1="500.145" y1="4.09172" x2="537.783" y2="232.071" stroke="green" stroke-width="2"/>
<circle    cx="500.145" cy="4.09172" r="2" />
<circle    cx="537.783" cy="232.071" r="2" />
<line x1="336.9" y1="227.603" x2="791.553" y2="327.056" stroke="green" stroke-width="2"/>
<circle    cx="336.9" cy="227.603" r="2" />
<circle    cx="791.553" cy="327.056" r="2" />
<line x1="736.636" y1="369.793" x2="854.544" y2="403.981" stroke="green" stroke-width="2"/>
<circle    cx="736.636" cy="369.793" r="2" />
<circle    cx="854.544" cy="403.981" r="2" />
<line x1="843.455" y1="134.256" x2="923.82" y2="44.7929" stroke="green" stroke-width="2"/>
<circle    cx="843.455" cy="134.256" r="2" />
<circle    cx="923.82" cy="44.7929" r="2" />
<line x1="192.937" y1="270.148" x2="760.069" y2="135.926" stroke="green" stroke-width="2"/>
<circle    cx="192.937" cy="270.148" r="2" />
<circle    cx="760.069" cy="135.926" r="2" />
<line x1="203.317" y1="58.6868" x2="549.104" y2="257.696" stroke="green" stroke-width="2"/>
<circle    cx="203.317" cy="58.6868" r="2" />
<circle    cx="549.104" cy="257.696" r="2" />
<line x1="702.319" y1="175.398" x2="966.211" y2="409.439" stroke="green" stroke-width="2"/>
<circle    cx="702.319" cy="175.398" r="2" />
<circle    cx="966.211" cy="409.439" r="2" />
<line x1="319.294" y1="461.192" x2="403.818" y2="321.888" stroke="green" stroke-width="2"/>
<circle    cx="319.294" cy="461.192" r="2" />
<circle    cx="403.818" cy="321.888" r="2" />

</svg>
